<mxfile host="app.diagrams.net" modified="2023-12-14T19:44:20.897Z" agent="Mozilla/5.0 (Windows NT 10.0; Win64; x64; rv:120.0) Gecko/20100101 Firefox/120.0" etag="iM5MU9UAs8UTVlLwJvJb" version="22.1.9" type="device">
  <diagram name="Stránka-1" id="Ql4f6ehubzpyPw9yViL3">
    <mxGraphModel dx="476" dy="748" grid="1" gridSize="10" guides="1" tooltips="1" connect="1" arrows="1" fold="1" page="1" pageScale="1" pageWidth="827" pageHeight="1169" math="0" shadow="0">
      <root>
        <mxCell id="0" />
        <mxCell id="1" parent="0" />
        <mxCell id="W6h8Gu4dVucxzOmqkTYc-1" value="&lt;font style=&quot;font-size: 30px;&quot;&gt;Rodič&lt;/font&gt;" style="rounded=0;whiteSpace=wrap;html=1;fillColor=#dae8fc;strokeColor=#6c8ebf;" vertex="1" parent="1">
          <mxGeometry x="180" y="40" width="190" height="110" as="geometry" />
        </mxCell>
        <mxCell id="W6h8Gu4dVucxzOmqkTYc-2" value="&lt;font style=&quot;font-size: 30px;&quot;&gt;Dítě&lt;/font&gt;" style="rounded=0;whiteSpace=wrap;html=1;fillColor=#f8cecc;strokeColor=#b85450;" vertex="1" parent="1">
          <mxGeometry x="180" y="300" width="190" height="110" as="geometry" />
        </mxCell>
        <mxCell id="W6h8Gu4dVucxzOmqkTYc-3" value="Upcasting" style="html=1;shadow=0;dashed=0;align=center;verticalAlign=middle;shape=mxgraph.arrows2.arrow;dy=0.6;dx=40;notch=0;rotation=-90;" vertex="1" parent="1">
          <mxGeometry x="165" y="195" width="120" height="70" as="geometry" />
        </mxCell>
        <mxCell id="W6h8Gu4dVucxzOmqkTYc-4" value="Downcasting" style="html=1;shadow=0;dashed=0;align=center;verticalAlign=middle;shape=mxgraph.arrows2.arrow;dy=0.6;dx=40;notch=0;rotation=90;" vertex="1" parent="1">
          <mxGeometry x="260" y="190" width="120" height="80" as="geometry" />
        </mxCell>
      </root>
    </mxGraphModel>
  </diagram>
</mxfile>
